<mxfile host="app.diagrams.net" modified="2024-05-03T05:28:14.125Z" agent="Mozilla/5.0 (Windows NT 10.0; Win64; x64) AppleWebKit/537.36 (KHTML, like Gecko) Chrome/121.0.0.0 Safari/537.36" version="24.3.1" etag="sRiMjItcPUdWZrGOIH1K" type="github">
  <diagram name="Page-1" id="4JlvxEu0hoDJ6VsjpaSG">
    <mxGraphModel>
      <root>
        <mxCell id="0" />
        <mxCell id="1" parent="0" />
      </root>
    </mxGraphModel>
  </diagram>
</mxfile>
